<?xml version="1.0" standalone="no"?>
<!DOCTYPE svg PUBLIC "-//W3C//DTD SVG 20010904//EN"
 "http://www.w3.org/TR/2001/REC-SVG-20010904/DTD/svg10.dtd">
<svg version="1.0" xmlns="http://www.w3.org/2000/svg"
 width="1024.000000pt" height="1024.000000pt" viewBox="0 0 1024.000000 1024.000000"
 preserveAspectRatio="xMidYMid meet">

<g transform="translate(0.000000,1024.000000) scale(0.100000,-0.100000)"
fill="#000000" stroke="none">
<path d="M4999 9661 l-29 -29 0 -167 c0 -103 4 -175 11 -188 40 -77 142 -75
181 3 15 28 18 61 18 170 0 201 -18 240 -108 240 -35 0 -49 -6 -73 -29z"/>
<path d="M4660 9444 c-522 -61 -1090 -237 -1595 -494 -275 -140 -568 -332
-795 -519 -193 -160 -504 -461 -519 -504 -2 -6 9 -22 26 -36 16 -15 94 -82
172 -150 l142 -123 162 159 c244 240 453 412 673 556 525 343 1122 560 1750
638 l101 13 7 230 c3 126 3 233 -1 236 -5 4 -60 1 -123 -6z"/>
<path d="M5370 9215 c0 -129 4 -235 8 -235 30 0 270 -36 377 -56 568 -108
1159 -363 1615 -698 94 -68 209 -162 222 -181 4 -5 9 -7 12 -5 3 3 80 79 171
170 l167 165 -44 39 c-24 22 -107 87 -185 145 -624 466 -1383 773 -2168 875
-65 9 -132 16 -147 16 l-28 0 0 -235z"/>
<path d="M2081 9102 c-106 -58 -87 -218 30 -253 49 -15 99 2 139 47 25 29 30
43 30 88 0 45 -5 58 -33 91 -28 32 -40 38 -82 42 -37 3 -59 -1 -84 -15z"/>
<path d="M7916 9089 c-41 -35 -57 -83 -47 -132 27 -118 146 -152 232 -66 34
34 39 45 39 84 0 89 -55 145 -142 145 -39 0 -54 -6 -82 -31z"/>
<path d="M4976 9041 c-3 -5 -5 -145 -3 -310 2 -255 4 -303 17 -311 8 -6 51 -9
95 -8 l80 3 0 315 0 315 -92 3 c-50 1 -94 -1 -97 -7z"/>
<path d="M1784 8840 c-60 -24 -83 -114 -44 -177 26 -43 54 -56 109 -50 61 7
111 58 111 114 0 43 -27 90 -62 109 -26 15 -83 17 -114 4z"/>
<path d="M8233 8830 c-40 -24 -53 -48 -53 -100 0 -77 40 -119 111 -120 52 0
90 23 114 70 56 107 -67 214 -172 150z"/>
<path d="M1400 8453 c-123 -128 -213 -229 -229 -260 -20 -39 -13 -103 14 -139
62 -82 183 -40 204 69 7 41 22 62 107 155 55 59 107 116 116 127 17 20 15 23
-45 89 l-62 68 -105 -109z"/>
<path d="M8583 8498 c-35 -35 -63 -68 -63 -74 0 -6 52 -67 115 -136 98 -108
115 -132 121 -168 15 -93 102 -137 174 -88 46 31 66 87 51 140 -11 34 -103
143 -281 331 l-55 58 -62 -63z"/>
<path d="M7889 8162 c-70 -75 -139 -152 -154 -170 l-27 -32 178 -183 c97 -100
180 -183 183 -185 4 -1 84 66 179 148 l173 151 -21 29 c-30 43 -364 381 -375
380 -5 0 -67 -62 -136 -138z"/>
<path d="M4742 8197 c-6 -7 -32 -139 -57 -292 -25 -153 -47 -280 -48 -281 -1
0 -44 -11 -96 -24 -226 -54 -497 -163 -687 -276 -86 -51 -97 -56 -119 -44 -19
10 -416 304 -460 340 -11 9 -57 -32 -220 -197 -114 -114 -224 -229 -246 -254
l-39 -47 171 -227 c95 -128 168 -234 165 -241 -3 -8 -28 -47 -55 -88 -64 -94
-138 -220 -190 -321 -22 -44 -44 -86 -49 -93 -8 -12 -95 6 -452 92 -127 31
-146 32 -160 5 -17 -30 -160 -520 -160 -546 0 -28 23 -43 205 -139 83 -43 195
-102 250 -130 l100 -53 3 -259 2 -258 -202 -109 c-266 -141 -358 -196 -358
-212 0 -22 124 -443 156 -530 13 -37 20 -43 45 -43 16 0 149 27 296 60 252 57
269 59 281 43 7 -10 43 -72 79 -138 36 -66 99 -171 140 -233 47 -72 72 -120
68 -131 -3 -10 -77 -114 -165 -232 -88 -118 -160 -221 -160 -229 0 -18 466
-500 484 -500 12 0 199 139 385 287 l105 83 80 -46 c229 -128 573 -263 768
-299 l36 -7 42 -261 c23 -144 46 -272 51 -284 l9 -23 319 0 c296 0 320 1 325
18 3 9 21 109 41 222 19 113 40 233 46 267 l12 61 96 26 c250 67 509 173 703
288 42 25 72 37 80 32 7 -4 72 -54 143 -109 72 -56 175 -136 229 -178 55 -42
105 -77 111 -77 21 0 498 489 492 504 -3 8 -75 106 -160 218 -84 111 -161 215
-171 229 -17 27 -17 27 57 137 41 61 105 164 142 229 38 65 74 128 81 140 l13
21 83 -18 c46 -10 154 -35 242 -54 218 -50 261 -54 274 -29 10 18 81 243 150
475 25 87 26 88 6 103 -17 13 -156 89 -451 247 l-93 49 0 262 1 262 201 105
c315 165 358 190 358 214 0 22 -120 428 -152 514 -16 43 -24 52 -44 52 -26 0
-213 -40 -414 -89 -68 -17 -132 -31 -141 -31 -11 0 -44 50 -98 145 -45 80
-115 196 -156 257 -41 62 -71 117 -67 123 4 6 79 105 167 219 88 114 164 214
169 221 13 17 -57 95 -297 333 l-185 184 -73 -55 c-41 -30 -150 -111 -243
-181 -93 -69 -173 -126 -177 -126 -4 0 -43 21 -86 47 -194 115 -456 223 -691
284 -58 15 -94 29 -97 39 -8 28 -46 243 -70 393 -14 82 -29 155 -36 163 -16
20 -621 21 -637 1z m218 -1166 c0 -66 3 -126 6 -135 5 -13 24 -16 105 -16 l99
0 0 135 0 135 34 0 c45 0 253 -36 324 -56 393 -110 758 -345 1011 -652 92
-111 139 -178 197 -277 150 -254 257 -572 280 -827 l7 -78 -98 0 -98 0 6 -67
c4 -38 7 -92 7 -120 l0 -53 91 0 91 0 -7 -72 c-23 -247 -114 -548 -232 -768
-325 -603 -879 -987 -1554 -1075 l-46 -6 -6 77 c-4 42 -7 103 -7 136 l0 58
-105 0 -105 0 0 -136 0 -136 -37 6 c-21 3 -65 8 -98 11 -189 20 -410 89 -612
190 -535 270 -932 777 -1075 1375 -24 101 -48 250 -48 303 l0 37 84 0 83 0 7
61 c3 34 6 88 6 120 l0 59 -91 0 -92 0 7 93 c3 50 17 140 30 198 154 677 643
1246 1274 1480 173 65 397 115 520 118 l42 1 0 -119z"/>
<path d="M5798 6185 c-13 -13 -10 -2143 3 -2150 16 -10 265 -6 337 6 145 23
247 89 293 192 l24 52 0 825 c0 818 0 825 -21 871 -46 99 -125 157 -253 185
-75 16 -372 31 -383 19z m368 -244 c78 -35 74 6 74 -828 0 -683 -1 -741 -18
-772 -27 -54 -61 -73 -141 -79 l-71 -5 0 852 0 851 58 0 c34 0 74 -8 98 -19z"/>
<path d="M5044 6165 c-82 -18 -133 -45 -178 -95 -69 -77 -71 -85 -71 -370 0
-240 1 -258 22 -306 26 -62 91 -163 269 -421 75 -108 145 -215 155 -237 16
-35 19 -68 19 -224 0 -240 -11 -262 -128 -262 -69 0 -89 9 -112 45 -17 27 -20
50 -20 133 0 118 5 114 -120 104 l-85 -7 -3 -128 c-3 -147 6 -189 51 -249 99
-130 314 -164 478 -76 66 34 103 77 130 149 17 43 19 79 19 288 0 342 31 269
-368 856 -97 142 -102 157 -102 333 0 179 10 214 64 237 76 32 165 10 185 -45
6 -18 11 -73 11 -122 0 -85 1 -89 25 -98 13 -5 59 -6 102 -2 l78 7 3 129 c3
150 -9 200 -64 265 -45 52 -113 87 -195 101 -78 12 -88 12 -165 -5z"/>
<path d="M3607 5923 c-4 -3 -7 -426 -7 -938 0 -755 2 -935 13 -943 14 -12 141
-30 168 -24 10 2 20 13 23 25 3 12 6 229 6 481 0 253 2 457 4 455 3 -2 37
-126 76 -274 101 -385 94 -365 139 -365 l37 0 63 238 c35 130 73 274 85 319
11 46 24 83 29 83 4 0 7 -211 7 -469 0 -414 2 -471 16 -485 8 -9 25 -14 37
-12 12 3 45 8 72 11 28 3 58 8 68 11 16 5 17 59 17 950 0 683 -3 944 -11 944
-16 0 -129 -29 -159 -41 -22 -8 -29 -25 -59 -142 -18 -72 -51 -195 -72 -272
-21 -77 -48 -174 -59 -215 -34 -120 -63 -214 -69 -222 -7 -8 -58 167 -152 522
-33 124 -66 248 -74 276 l-15 51 -82 22 c-92 24 -92 24 -101 14z"/>
<path d="M3973 8021 c-49 -30 -50 -63 -7 -172 20 -52 46 -104 57 -116 49 -55
157 -2 157 77 0 33 -70 184 -96 208 -31 27 -69 28 -111 3z"/>
<path d="M6053 8022 c-35 -26 -106 -199 -99 -238 8 -42 37 -65 88 -71 54 -6
72 11 122 123 50 113 47 157 -14 189 -38 20 -70 19 -97 -3z"/>
<path d="M1534 7663 c-107 -142 -216 -311 -301 -465 -5 -10 76 -61 224 -141
66 -36 132 -72 145 -81 l25 -16 87 140 c48 77 124 191 168 253 44 61 82 117
85 123 5 13 -327 294 -347 294 -3 0 -42 -48 -86 -107z"/>
<path d="M2714 7568 c-103 -100 -112 -122 -73 -172 15 -19 30 -26 53 -26 28 0
47 13 125 91 102 101 112 129 66 174 -43 44 -68 35 -171 -67z"/>
<path d="M7246 7639 c-19 -15 -26 -29 -26 -56 0 -32 10 -47 89 -126 76 -77 93
-90 121 -90 24 0 40 8 57 27 42 49 33 71 -71 173 -102 101 -122 109 -170 72z"/>
<path d="M8492 7479 c-175 -133 -202 -156 -202 -167 0 -4 34 -60 75 -123 41
-62 110 -178 152 -256 43 -78 80 -143 83 -143 3 0 88 49 190 110 101 60 189
111 195 113 20 8 -120 266 -253 465 -41 62 -78 114 -81 116 -3 1 -75 -50 -159
-115z"/>
<path d="M1170 7071 c-26 -51 -25 -53 8 -72 250 -147 343 -199 354 -199 15 1
52 75 44 88 -3 5 -76 49 -163 97 -87 48 -172 97 -190 107 l-32 19 -21 -40z"/>
<path d="M1051 6828 c-127 -297 -230 -661 -287 -1015 -22 -137 -44 -366 -44
-460 l0 -83 135 0 135 0 0 60 c0 57 1 60 23 55 38 -8 140 -25 152 -25 8 0 14
35 19 103 13 209 81 564 156 822 32 107 118 340 155 420 4 7 -341 225 -385
243 -4 1 -30 -52 -59 -120z"/>
<path d="M8950 6908 c-68 -44 -289 -188 -304 -199 -5 -4 10 -51 34 -105 126
-294 237 -742 271 -1099 6 -71 15 -134 19 -138 4 -4 45 -2 91 6 46 8 87 13 92
10 4 -2 7 -29 7 -59 l0 -54 132 0 131 0 -6 130 c-23 436 -130 923 -298 1344
-66 163 -86 206 -97 205 -4 0 -36 -19 -72 -41z"/>
<path d="M8024 6830 c-30 -12 -219 -137 -234 -155 -7 -8 -13 -33 -13 -56 0
-74 69 -117 135 -83 63 32 207 134 218 153 18 35 12 79 -17 110 -32 34 -59 43
-89 31z"/>
<path d="M2047 6819 c-11 -6 -25 -27 -33 -46 -27 -63 -8 -93 113 -178 124 -88
147 -93 199 -41 37 37 43 73 20 115 -7 13 -60 55 -117 92 -106 70 -142 81
-182 58z"/>
<path d="M385 5286 c-50 -22 -77 -60 -83 -114 -9 -96 51 -156 147 -149 47 3
59 9 87 40 38 42 49 73 40 121 -17 88 -110 138 -191 102z"/>
<path d="M9639 5279 c-47 -27 -71 -69 -71 -124 0 -81 53 -135 132 -135 111 0
177 103 128 200 -38 75 -118 100 -189 59z"/>
<path d="M1240 5250 c-23 -14 -18 -159 6 -177 14 -10 86 -13 318 -12 166 1
312 4 325 8 76 21 86 147 14 180 -30 14 -641 15 -663 1z"/>
<path d="M8227 5249 c-22 -13 -47 -61 -47 -93 0 -14 13 -40 29 -58 l29 -33
325 -3 c380 -3 357 -9 357 98 0 110 34 100 -344 100 -206 0 -338 -4 -349 -11z"/>
<path d="M720 4953 c0 -255 54 -631 136 -943 35 -134 112 -379 140 -445 l14
-34 192 111 c106 60 196 113 201 117 4 4 -7 47 -23 97 -102 299 -179 685 -198
989 l-7 120 -55 -3 c-30 -2 -72 -7 -92 -12 l-38 -8 0 59 0 59 -135 0 -135 0 0
-107z"/>
<path d="M9160 5031 c0 -16 -3 -42 -6 -58 l-6 -29 -76 12 c-118 20 -112 22
-112 -38 -1 -86 -27 -322 -54 -480 -29 -165 -78 -363 -136 -550 -22 -69 -40
-128 -40 -131 0 -3 71 -44 158 -92 86 -48 176 -98 199 -112 51 -29 45 -38 107
149 130 393 211 818 223 1186 l6 172 -131 0 -132 0 0 -29z"/>
<path d="M2188 3677 c-24 -18 -73 -54 -110 -80 l-68 -48 0 -50 c0 -41 5 -54
26 -74 16 -15 39 -25 57 -25 36 0 195 99 238 148 40 45 40 93 0 133 -41 40
-86 39 -143 -4z"/>
<path d="M7805 3685 c-19 -18 -25 -35 -25 -68 0 -56 10 -68 132 -151 74 -50
106 -66 132 -66 49 0 86 34 93 86 7 52 -10 70 -141 158 -112 75 -150 83 -191
41z"/>
<path d="M1294 3484 c-93 -58 -180 -113 -193 -123 l-23 -18 42 -76 c23 -43 44
-77 47 -77 10 0 362 217 382 236 6 6 -71 164 -80 164 -3 0 -82 -47 -175 -106z"/>
<path d="M8628 3513 c-20 -43 -35 -79 -35 -79 25 -21 384 -233 390 -231 4 1
26 35 48 75 l39 72 -67 43 c-82 52 -307 185 -326 193 -9 3 -25 -20 -49 -73z"/>
<path d="M1450 3229 c-80 -55 -164 -112 -187 -128 l-42 -30 29 -53 c47 -85
199 -319 275 -422 l70 -95 25 23 c19 17 308 257 329 272 1 2 -37 60 -87 131
-93 133 -199 298 -233 365 -11 21 -23 37 -27 37 -4 -1 -72 -46 -152 -100z"/>
<path d="M8472 3227 c-33 -56 -90 -147 -127 -202 l-67 -99 28 -23 c16 -13 73
-56 128 -95 54 -39 123 -90 152 -114 30 -24 57 -44 61 -44 13 1 110 145 199
294 64 106 81 143 73 153 -13 15 -366 233 -379 233 -4 0 -35 -46 -68 -103z"/>
<path d="M2640 2848 c-12 -13 -20 -35 -20 -57 0 -31 11 -46 93 -128 72 -72 99
-93 121 -93 38 0 76 41 76 83 0 29 -12 45 -94 125 -77 76 -99 92 -124 92 -19
0 -39 -8 -52 -22z"/>
<path d="M7313 2778 c-90 -89 -94 -94 -91 -132 4 -50 42 -82 84 -72 15 4 67
46 116 94 79 78 88 91 88 124 0 28 -6 42 -26 57 -48 38 -69 29 -171 -71z"/>
<path d="M7893 2471 l-182 -188 47 -54 c79 -91 254 -284 262 -287 8 -3 308
303 365 372 l40 49 -55 49 c-47 41 -167 143 -268 225 l-27 21 -182 -187z"/>
<path d="M1895 2506 c-87 -79 -161 -148 -162 -153 -2 -5 59 -77 136 -160 697
-755 1668 -1256 2700 -1393 84 -11 166 -20 181 -20 l27 0 6 228 c3 125 2 231
-3 236 -5 5 -73 17 -152 27 -325 42 -658 129 -978 254 -243 95 -612 295 -822
446 -225 163 -461 368 -644 563 -60 64 -113 116 -119 115 -5 0 -82 -65 -170
-143z"/>
<path d="M4023 2525 c-26 -18 -93 -183 -93 -229 0 -66 84 -108 139 -70 30 22
101 176 101 221 0 71 -89 119 -147 78z"/>
<path d="M5989 2511 c-38 -39 -37 -67 6 -171 40 -95 71 -130 117 -130 36 0 98
56 98 90 0 31 -68 191 -93 218 -31 34 -90 30 -128 -7z"/>
<path d="M1213 2220 c-67 -40 -73 -112 -16 -186 47 -63 294 -334 303 -334 4 0
35 30 69 66 l62 65 -32 37 c-31 36 -64 73 -161 179 -37 40 -48 60 -48 85 0 85
-100 135 -177 88z"/>
<path d="M8813 2226 c-37 -17 -50 -38 -59 -94 -5 -34 -24 -60 -116 -159 -60
-65 -114 -125 -118 -134 -7 -12 7 -31 55 -79 l65 -64 26 25 c42 39 288 319
301 342 7 12 12 41 13 64 0 84 -86 135 -167 99z"/>
<path d="M7515 2124 c-538 -441 -1323 -779 -1980 -854 -49 -6 -107 -13 -127
-16 l-38 -6 0 -234 0 -234 38 0 c48 0 288 35 417 61 709 142 1345 429 1915
865 154 118 190 149 190 163 0 9 -313 313 -328 318 -4 2 -43 -27 -87 -63z"/>
<path d="M4970 1546 c0 -161 3 -308 6 -325 l7 -31 93 0 94 0 0 325 0 325 -100
0 -100 0 0 -294z"/>
<path d="M1793 1625 c-66 -28 -93 -120 -54 -179 55 -83 168 -69 215 27 17 36
17 41 2 81 -12 31 -27 49 -55 64 -45 25 -64 27 -108 7z"/>
<path d="M8263 1633 c-13 -2 -36 -18 -53 -34 -26 -26 -30 -38 -30 -85 0 -44 5
-59 28 -84 52 -60 149 -48 192 23 38 62 12 145 -55 173 -35 14 -42 15 -82 7z"/>
<path d="M2090 1382 c-100 -50 -106 -192 -9 -244 93 -50 199 15 199 122 0 56
-27 101 -73 123 -45 22 -73 21 -117 -1z"/>
<path d="M7943 1386 c-46 -21 -73 -70 -73 -132 0 -104 98 -164 192 -118 46 22
71 59 75 113 9 103 -99 180 -194 137z"/>
<path d="M5021 996 c-44 -25 -50 -50 -51 -221 0 -142 2 -164 20 -192 22 -38
58 -50 108 -37 64 16 74 42 80 216 4 131 2 159 -12 190 -26 54 -91 74 -145 44z"/>
</g>
</svg>
